<svg width="current" height="current" viewBox="0 0 41 44" fill="none" xmlns="http://www.w3.org/2000/svg">
<g clip-path="url(#clip0_4_39)">
<path d="M31 42.5H2C1.44772 42.5 1 42.0523 1 41.5V2.5C1 1.94772 1.44772 1.5 2 1.5H30C30.5523 1.5 31 1.94772 31 2.5V17" stroke="black" stroke-width="2"/>
<path d="M6 8H26" stroke="black" stroke-width="2"/>
<path d="M6 14H26" stroke="black" stroke-width="2"/>
<path d="M6 20H12.5" stroke="black" stroke-width="2"/>
<path d="M8.68421 38.0526H5.73684C5.3299 38.0526 5 37.7227 5 37.3158V31.0526C5 30.6457 5.3299 30.3158 5.73684 30.3158H8.68421M8.68421 38.0526V30.3158M8.68421 38.0526L12.2367 39.4736C12.3237 39.5084 12.4166 39.5263 12.5103 39.5263H18.8772C19.1746 39.5263 19.4429 39.3475 19.5573 39.0729L20.6986 36.3337C21.0294 35.5398 21.0721 34.6553 20.8191 33.8332L19.8969 30.8359C19.8018 30.5267 19.5161 30.3158 19.1926 30.3158H14.9474H15.9657C16.5134 30.3158 16.8696 29.7394 16.6247 29.2494L16.2563 28.5126C16.1315 28.2629 15.8763 28.1053 15.5973 28.1053H12.5725C12.4389 28.1053 12.3079 28.1416 12.1934 28.2103L8.68421 30.3158" stroke="black" stroke-width="1.5"/>
<path d="M36.3158 38.0526H39.2632C39.6701 38.0526 40 37.7227 40 37.3158V31.0526C40 30.6457 39.6701 30.3158 39.2632 30.3158H36.3158M36.3158 38.0526V30.3158M36.3158 38.0526L32.7633 39.4736C32.6763 39.5084 32.5834 39.5263 32.4897 39.5263H26.1228C25.8254 39.5263 25.5571 39.3475 25.4427 39.0729L24.3014 36.3337C23.9706 35.5398 23.9279 34.6553 24.1809 33.8332L25.1031 30.8359C25.1982 30.5267 25.4839 30.3158 25.8074 30.3158H30.0526H29.0343C28.4866 30.3158 28.1304 29.7394 28.3753 29.2494L28.7437 28.5126C28.8685 28.2629 29.1237 28.1053 29.4027 28.1053H32.4275C32.5611 28.1053 32.6921 28.1416 32.8066 28.2103L36.3158 30.3158" stroke="black" stroke-width="1.5"/>
<path d="M12.3684 25.8947C12.3684 25.8947 15.3158 26.6316 15.3158 22.2105C15.3158 22.2105 19.7368 25.1579 21.9474 20C21.9474 20 24.1579 25.1579 28.5789 22.2105C28.5789 22.2105 28.5789 27 31.5263 25.8947" stroke="black" stroke-width="1.5"/>
</g>
<defs>
<clipPath id="clip0_4_39">
<rect width="41" height="44" fill="white"/>
</clipPath>
</defs>
</svg>
