<svg width="current" height="current" viewBox="0 0 50 31" fill="none" xmlns="http://www.w3.org/2000/svg">
<g clip-path="url(#clip0_4_25)">
<path d="M6 27.5H2C1.44772 27.5 1 27.0523 1 26.5V18C1 17.4477 1.44772 17 2 17H6M6 27.5V17M6 27.5L10.8212 29.4285C10.9393 29.4757 11.0654 29.5 11.1926 29.5H19.8333C20.237 29.5 20.6011 29.2573 20.7564 28.8846L22.3053 25.1672C22.7542 24.0898 22.8121 22.8893 22.4688 21.7737L21.2172 17.7059C21.0881 17.2863 20.7004 17 20.2614 17H14.5H15.882C16.6253 17 17.1088 16.2177 16.7764 15.5528L16.2764 14.5528C16.107 14.214 15.7607 14 15.382 14H11.277C11.0957 14 10.9179 14.0493 10.7625 14.1425L6 17" stroke="black" stroke-width="2"/>
<path d="M43.5 27.5H47.5C48.0523 27.5 48.5 27.0523 48.5 26.5V18C48.5 17.4477 48.0523 17 47.5 17H43.5M43.5 27.5V17M43.5 27.5L38.6788 29.4285C38.5607 29.4757 38.4346 29.5 38.3074 29.5H29.6667C29.263 29.5 28.8989 29.2573 28.7436 28.8846L27.1947 25.1672C26.7458 24.0898 26.6879 22.8893 27.0312 21.7737L28.2828 17.7059C28.4119 17.2863 28.7996 17 29.2386 17H35H33.618C32.8747 17 32.3912 16.2177 32.7236 15.5528L33.2236 14.5528C33.393 14.214 33.7393 14 34.118 14H38.223C38.4043 14 38.5821 14.0493 38.7375 14.1425L43.5 17" stroke="black" stroke-width="2"/>
<path d="M11 11C11 11 15 12 15 6C15 6 21 10 24 3C24 3 27 10 33 6C33 6 33 12.5 37 11" stroke="black" stroke-width="2"/>
</g>
<defs>
<clipPath id="clip0_4_25">
<rect width="50" height="31" fill="white"/>
</clipPath>
</defs>
</svg>
